<?xml version="1.0" encoding="UTF-8" standalone="no"?>
<svg
   xmlns:dc="http://purl.org/dc/elements/1.1/"
   xmlns:cc="http://creativecommons.org/ns#"
   xmlns:rdf="http://www.w3.org/1999/02/22-rdf-syntax-ns#"
   xmlns:svg="http://www.w3.org/2000/svg"
   xmlns="http://www.w3.org/2000/svg"
   id="svg8"
   version="1.1"
   viewBox="0 0 70 70"
   height="70mm"
   width="70mm">
  <defs
     id="defs2" />
  <metadata
     id="metadata5">
    <rdf:RDF>
      <cc:Work
         rdf:about="">
        <dc:format>image/svg+xml</dc:format>
        <dc:type
           rdf:resource="http://purl.org/dc/dcmitype/StillImage" />
        <dc:title></dc:title>
      </cc:Work>
    </rdf:RDF>
  </metadata>
  <g
     transform="translate(-26,-82)"
     id="layer1">
    <path
       id="flowRoot815"
       transform="matrix(0.26458333,0,0,0.26458333,25,86)"
       d="M 52.623047 81.505859 C 45.574436 81.505859 40.04362 83.192057 36.033203 86.564453 C 32.053168 89.936849 30.064453 94.570746 30.064453 100.46484 C 30.064453 103.59418 30.671441 106.32856 31.886719 108.66797 C 33.101997 111.00738 34.728082 113.05816 36.763672 114.82031 C 38.799262 116.58247 41.852648 118.41992 45.923828 120.33398 C 50.268446 122.39996 53.13954 123.90386 54.537109 124.8457 C 55.965061 125.78754 57.042318 126.77561 57.771484 127.80859 C 58.500651 128.8112 58.865234 129.96506 58.865234 131.27148 C 58.865234 133.61089 58.030382 135.3737 56.359375 136.55859 C 54.71875 137.74349 52.348958 138.33594 49.25 138.33594 C 46.667535 138.33594 43.810981 137.92578 40.681641 137.10547 C 37.582682 136.28516 33.78559 134.8724 29.289062 132.86719 L 29.289062 145.99219 C 34.757813 148.6658 41.046875 150.00195 48.15625 150.00195 C 55.873264 150.00195 61.888889 148.27018 66.203125 144.80664 C 70.547743 141.3431 72.720703 136.60352 72.720703 130.58789 C 72.720703 126.24327 71.564887 122.5829 69.255859 119.60547 C 66.946832 116.59766 62.679471 113.60438 56.451172 110.62695 C 51.74197 108.37869 48.748698 106.82921 47.472656 105.97852 C 46.226997 105.09744 45.315538 104.20247 44.738281 103.29102 C 44.161024 102.34918 43.873047 101.25543 43.873047 100.00977 C 43.873047 98.004557 44.58572 96.378472 46.013672 95.132812 C 47.441623 93.887153 49.492404 93.263672 52.166016 93.263672 C 54.41428 93.263672 56.692925 93.553602 59.001953 94.130859 C 61.341363 94.708116 64.289062 95.72526 67.84375 97.183594 L 72.400391 86.201172 C 68.967231 84.712457 65.671441 83.556641 62.511719 82.736328 C 59.382378 81.916016 56.086589 81.505859 52.623047 81.505859 z M 104.0293 81.505859 C 96.980686 81.505859 91.44987 83.192057 87.439453 86.564453 C 83.459418 89.936849 81.470703 94.570746 81.470703 100.46484 C 81.470703 103.59418 82.077691 106.32856 83.292969 108.66797 C 84.508247 111.00738 86.134332 113.05816 88.169922 114.82031 C 90.205512 116.58247 93.258898 118.41992 97.330078 120.33398 C 101.6747 122.39996 104.54579 123.90386 105.94336 124.8457 C 107.37131 125.78754 108.44857 126.77561 109.17773 127.80859 C 109.9069 128.8112 110.27148 129.96506 110.27148 131.27148 C 110.27148 133.61089 109.43663 135.3737 107.76562 136.55859 C 106.125 137.74349 103.75521 138.33594 100.65625 138.33594 C 98.073785 138.33594 95.217231 137.92578 92.087891 137.10547 C 88.988932 136.28516 85.19184 134.8724 80.695312 132.86719 L 80.695312 145.99219 C 86.164063 148.6658 92.453125 150.00195 99.5625 150.00195 C 107.27951 150.00195 113.29514 148.27018 117.60938 144.80664 C 121.95399 141.3431 124.12695 136.60352 124.12695 130.58789 C 124.12695 126.24327 122.97114 122.5829 120.66211 119.60547 C 118.35308 116.59766 114.08572 113.60438 107.85742 110.62695 C 103.14822 108.37869 100.15495 106.82921 98.878906 105.97852 C 97.633247 105.09744 96.721788 104.20247 96.144531 103.29102 C 95.567274 102.34918 95.279297 101.25543 95.279297 100.00977 C 95.279297 98.004557 95.99197 96.378472 97.419922 95.132812 C 98.847873 93.887153 100.89865 93.263672 103.57227 93.263672 C 105.82053 93.263672 108.09918 93.553602 110.4082 94.130859 C 112.74761 94.708116 115.69531 95.72526 119.25 97.183594 L 123.80664 86.201172 C 120.37348 84.712457 117.07769 83.556641 113.91797 82.736328 C 110.78863 81.916016 107.49284 81.505859 104.0293 81.505859 z M 193.99023 82.462891 L 193.99023 149.0918 L 218.91797 149.0918 C 226.45269 149.0918 232.4082 147.38911 236.7832 143.98633 C 241.18859 140.58355 243.39062 135.84397 243.39062 129.76758 C 243.39062 125.48372 242.44813 122.05122 240.56445 119.46875 C 238.71115 116.88628 235.67426 115.12348 231.45117 114.18164 L 231.45117 113.72656 C 234.55013 113.21007 237.02561 111.67513 238.87891 109.12305 C 240.76259 106.57096 241.70508 103.30621 241.70508 99.326172 C 241.70508 93.462457 239.56315 89.193142 235.2793 86.519531 C 231.02582 83.815538 224.17339 82.462891 214.72461 82.462891 L 193.99023 82.462891 z M 208.11719 94.039062 L 215.54492 94.039062 C 219.58572 94.039063 222.53342 94.600477 224.38672 95.724609 C 226.2704 96.818359 227.21289 98.641276 227.21289 101.19336 C 227.21289 103.92773 226.34701 105.88737 224.61523 107.07227 C 222.91385 108.25716 220.14844 108.84961 216.32031 108.84961 L 208.11719 108.84961 L 208.11719 94.039062 z M 156.84766 97.183594 C 148.97873 97.183594 142.87196 99.493273 138.52734 104.11133 C 134.18273 108.72938 132.00977 115.20074 132.00977 123.52539 C 132.00977 128.87261 133.01237 133.55013 135.01758 137.56055 C 137.02279 141.57096 139.89388 144.65538 143.63086 146.8125 C 147.36784 148.93924 151.68273 150.00195 156.57422 150.00195 C 164.38238 150.00195 170.47461 147.66319 174.84961 142.98438 C 179.22461 138.30556 181.41211 131.81966 181.41211 123.52539 C 181.41211 118.17817 180.40951 113.51324 178.4043 109.5332 C 176.39909 105.55317 173.52799 102.49978 169.79102 100.37305 C 166.05404 98.246311 161.73915 97.183594 156.84766 97.183594 z M 156.66602 108.39453 C 160.40299 108.39453 163.0918 109.65603 164.73242 112.17773 C 166.37305 114.69944 167.19336 118.48199 167.19336 123.52539 C 167.19336 128.59918 166.37305 132.4273 164.73242 135.00977 C 163.12218 137.56185 160.46246 138.83789 156.75586 138.83789 C 153.01888 138.83789 150.31554 137.54536 148.64453 134.96289 C 147.00391 132.38043 146.18359 128.56879 146.18359 123.52539 C 146.18359 118.45161 147.00391 114.66905 148.64453 112.17773 C 150.28516 109.65603 152.95942 108.39453 156.66602 108.39453 z M 208.11719 120.06055 L 216.86719 120.06055 C 224.76649 120.06055 228.7168 122.82595 228.7168 128.35547 C 228.7168 131.42405 227.78885 133.70269 225.93555 135.19141 C 224.08225 136.68012 221.21115 137.42383 217.32227 137.42383 L 208.11719 137.42383 L 208.11719 120.06055 z "
       style="font-style:normal;font-variant:normal;font-weight:bold;font-stretch:normal;font-size:93.33333588px;line-height:1.25;font-family:'Open Sans';-inkscape-font-specification:'Open Sans, Bold';font-variant-ligatures:normal;font-variant-caps:normal;font-variant-numeric:normal;font-feature-settings:normal;text-align:start;letter-spacing:0px;word-spacing:0px;writing-mode:lr-tb;text-anchor:start;fill:#000000;fill-opacity:1;stroke:none" />
  </g>
</svg>
